<svg xmlns="http://www.w3.org/2000/svg" viewBox="-2 -2 26.73 20.54" style="fill:white"><path d="M3.71 3l.43-.21a18.14 18.14 0 012.73-1.11 12.49 12.49 0 011.9-.45l1.2-.15a17.54 17.54 0 012 0 13.67 13.67 0 011.56.13 14 14 0 012.63.62 15.75 15.75 0 011.84.69L19 3a.08.08 0 00.07 0 1.29 1.29 0 00-.17-.16 11.38 11.38 0 00-1.68-1.24A9.88 9.88 0 0015.7.94a15.06 15.06 0 00-1.35-.41h-.06c-.06 0-.07 0 0-.09l.18-.36a.09.09 0 01.07-.08 7 7 0 011.29.23 10.21 10.21 0 011.78.64 10.69 10.69 0 011.52.84l.41.27a1.2 1.2 0 01.32.45 18.61 18.61 0 011.29 2.84l.7 2.29.45 2.09.22 1.43.16 1.52c0 .25 0 .51.05.76a.14.14 0 01-.05.14 8 8 0 01-1.84 1.55 9.52 9.52 0 01-2.2 1 10.38 10.38 0 01-1.22.31 6.91 6.91 0 01-1.35.16.08.08 0 01-.09 0l-.76-1c-.05-.06 0-.08 0-.1a9.63 9.63 0 001.36-.59 10 10 0 002-1.33l.83-.81a.22.22 0 00.08-.13l-.25.17a11.38 11.38 0 01-1.46.89 12.62 12.62 0 01-2.33.9 14.15 14.15 0 01-1.94.38l-1.1.1h-1.57c-.52 0-.92 0-1.38-.09l-1.53-.25a12.87 12.87 0 01-2.5-.83 11.56 11.56 0 01-2-1.19l-.15-.1a.47.47 0 00.09.12 10.43 10.43 0 002.59 2 10.64 10.64 0 001.54.69c.13.05.13.05.05.16l-.72 1a.12.12 0 01-.11.05 8.41 8.41 0 01-1.8-.26A10.66 10.66 0 013 15.66a9.52 9.52 0 01-1.72-1A8.81 8.81 0 010 13.49a.17.17 0 010-.1c0-.32 0-.63.07-1s0-.59.1-.89.08-.67.13-1q.14-.91.33-1.83l.51-2.03c.14-.69.42-1.3.66-1.93A17.64 17.64 0 013 2.23a1.24 1.24 0 01.41-.38A12 12 0 014.87 1 10.82 10.82 0 017.42.12 6.49 6.49 0 018.19 0a.09.09 0 01.12.06 3.78 3.78 0 00.17.35c0 .07 0 .09-.05.11a12.15 12.15 0 00-1.18.34A9.68 9.68 0 004.9 2.07l-1.15.91v.06zm9.22 6.22a2.17 2.17 0 000 .36 2 2 0 00.85 1.45 1.56 1.56 0 001.06.29 1.78 1.78 0 001.47-1.1A2.2 2.2 0 0016.52 9a2 2 0 00-.85-1.44 1.62 1.62 0 00-2.1.19 2.12 2.12 0 00-.65 1.54zm-3.11 0a2.18 2.18 0 00-.62-1.47 1.64 1.64 0 00-2.32-.07l-.1.11a2.13 2.13 0 00-.57 1.63 2.05 2.05 0 00.49 1.3 1.62 1.62 0 001.19.64 1.66 1.66 0 001.43-.64 2.1 2.1 0 00.49-1.42zm-6.63 3.25z"/></svg>
