<?xml version="1.0" encoding="UTF-8" standalone="no"?>
<svg
   xmlns:dc="http://purl.org/dc/elements/1.1/"
   xmlns:cc="http://creativecommons.org/ns#"
   xmlns:rdf="http://www.w3.org/1999/02/22-rdf-syntax-ns#"
   xmlns:svg="http://www.w3.org/2000/svg"
   xmlns="http://www.w3.org/2000/svg"
   xmlns:sodipodi="http://sodipodi.sourceforge.net/DTD/sodipodi-0.dtd"
   xmlns:inkscape="http://www.inkscape.org/namespaces/inkscape"
   id="Layer_1"
   viewBox="0 0 200 200"
   version="1.1"
   sodipodi:docname="discord.svg"
   width="200"
   height="200"
   inkscape:version="1.0.1 (0767f8302a, 2020-10-17)">
  <metadata
     id="metadata13">
    <rdf:RDF>
      <cc:Work
         rdf:about="">
        <dc:format>image/svg+xml</dc:format>
        <dc:type
           rdf:resource="http://purl.org/dc/dcmitype/StillImage" />
        <dc:title></dc:title>
      </cc:Work>
    </rdf:RDF>
  </metadata>
  <defs
     id="defs11" />
  <sodipodi:namedview
     pagecolor="#ffffff"
     bordercolor="#666666"
     borderopacity="1"
     objecttolerance="10"
     gridtolerance="10"
     guidetolerance="10"
     inkscape:pageopacity="0"
     inkscape:pageshadow="2"
     inkscape:window-width="2137"
     inkscape:window-height="1323"
     id="namedview9"
     showgrid="false"
     fit-margin-left="0"
     inkscape:zoom="3.4958333"
     inkscape:cx="103.25534"
     inkscape:cy="123.70494"
     inkscape:window-x="0"
     inkscape:window-y="0"
     inkscape:window-maximized="0"
     inkscape:current-layer="Layer_1" />
  <style
     id="style2">.st0{fill:#7289DA;}</style>
  <rect
     style="fill:#ffffff;fill-opacity:1;stroke-width:15;stroke-linejoin:round"
     id="rect853"
     width="144.06973"
     height="120.46286"
     x="29.856964"
     y="31.190029" />
  <path
     class="st0"
     d="m 81.9,83.9 c -5.7,0 -10.2,4.999998 -10.2,11.099998 0,6.099992 4.6,11.099992 10.2,11.099992 5.7,0 10.2,-5 10.2,-11.099992 C 92.2,88.899998 87.6,83.9 81.9,83.9 Z m 36.5,0 c -5.7,0 -10.2,4.999998 -10.2,11.099998 0,6.099992 4.6,11.099992 10.2,11.099992 5.7,0 10.2,-5 10.2,-11.099992 0,-6.1 -4.5,-11.099998 -10.2,-11.099998 z"
     id="path4" />
  <path
     class="st0"
     d="M 167,0 H 33 C 21.7,0 12.5,9.2000003 12.5,20.6 v 135.19999 c 0,11.4 9.2,20.6 20.5,20.6 h 113.4 l -5.3,-18.5 12.8,11.9 12.1,11.2 21.5,19 V 20.6 C 187.5,9.2000003 178.3,0 167,0 Z m -38.6,130.59999 c 0,0 -3.6,-4.3 -6.6,-8.1 13.1,-3.7 18.1,-11.9 18.1,-11.9 -4.1,2.7 -8,4.6 -11.5,5.9 -5,2.1 -9.8,3.5 -14.5,4.3 -9.6,1.8 -18.399998,1.3 -25.9,-0.1 -5.7,-1.1 -10.6,-2.7 -14.7,-4.3 -2.3,-0.9 -4.8,-2 -7.3,-3.4 -0.3,-0.2 -0.6,-0.3 -0.9,-0.5 -0.2,-0.1 -0.3,-0.2 -0.4,-0.3 -1.8,-1 -2.8,-1.7 -2.8,-1.7 0,0 4.8,8 17.5,11.8 -3,3.8 -6.7,8.3 -6.7,8.3 -22.1,-0.7 -30.5,-15.2 -30.5,-15.2 C 42.2,83.2 56.6,57.1 56.6,57.1 71,46.3 84.7,46.6 84.7,46.6 l 1,1.2 c -18,5.2 -26.3,13.1 -26.3,13.1 0,0 2.2,-1.2 5.9,-2.9 10.7,-4.7 19.2,-6 22.7,-6.3 0.6,-0.1 1.1,-0.2 1.7,-0.2 6.100002,-0.8 13,-1 20.2,-0.2 9.5,1.1 19.7,3.9 30.1,9.6 0,0 -7.9,-7.5 -24.9,-12.7 l 1.4,-1.6 c 0,0 13.7,-0.3 28.1,10.5 0,0 14.4,26.1 14.4,58.29999 0,0 -8.5,14.5 -30.6,15.2 z"
     id="path6" />
</svg>
