<svg xmlns="http://www.w3.org/2000/svg" id="Layer_1" viewBox="23.308 24.294 754.857 219.969" version="1.1"><style id="style916">.st0{fill:#7289da}</style><path id="rect931" fill="#fff" stroke-width="15" stroke-linejoin="round" fill-opacity="1" d="M53.58 62.526h147.228v125.049H53.58z"/><path class="st0" d="M142.8 120.1c-5.7 0-10.2 4.9-10.2 11s4.6 11 10.2 11c5.7 0 10.2-4.9 10.2-11s-4.6-11-10.2-11zm-36.5 0c-5.7 0-10.2 4.9-10.2 11s4.6 11 10.2 11c5.7 0 10.2-4.9 10.2-11 .1-6.1-4.5-11-10.2-11z" id="path918"/><path class="st0" d="M191.4 36.9h-134c-11.3 0-20.5 9.2-20.5 20.5v134c0 11.3 9.2 20.5 20.5 20.5h113.4l-5.3-18.3 12.8 11.8 12.1 11.1 21.6 18.7V57.4c-.1-11.3-9.3-20.5-20.6-20.5zm-38.6 129.5s-3.6-4.3-6.6-8c13.1-3.7 18.1-11.8 18.1-11.8-4.1 2.7-8 4.6-11.5 5.9-5 2.1-9.8 3.4-14.5 4.3-9.6 1.8-18.4 1.3-25.9-.1-5.7-1.1-10.6-2.6-14.7-4.3-2.3-.9-4.8-2-7.3-3.4-.3-.2-.6-.3-.9-.5-.2-.1-.3-.2-.4-.2-1.8-1-2.8-1.7-2.8-1.7s4.8 7.9 17.5 11.7c-3 3.8-6.7 8.2-6.7 8.2-22.1-.7-30.5-15.1-30.5-15.1 0-31.9 14.4-57.8 14.4-57.8 14.4-10.7 28-10.4 28-10.4l1 1.2c-18 5.1-26.2 13-26.2 13s2.2-1.2 5.9-2.8c10.7-4.7 19.2-5.9 22.7-6.3.6-.1 1.1-.2 1.7-.2 6.1-.8 13-1 20.2-.2 9.5 1.1 19.7 3.9 30.1 9.5 0 0-7.9-7.5-24.9-12.6l1.4-1.6s13.7-.3 28 10.4c0 0 14.4 25.9 14.4 57.8 0-.1-8.4 14.3-30.5 15zm145.647-76.805h-33.2v37.3l22.1 19.9v-36.2h11.8c7.5 0 11.2 3.6 11.2 9.4v27.7c0 5.8-3.5 9.7-11.2 9.7h-34v21.1h33.2c17.8.1 34.5-8.8 34.5-29.2v-29.8c.1-20.8-16.6-29.9-34.4-29.9zm174 59.7v-30.6c0-11 19.8-13.5 25.8-2.5l18.3-7.4c-7.2-15.8-20.3-20.4-31.2-20.4-17.8 0-35.4 10.3-35.4 30.3v30.6c0 20.2 17.6 30.3 35 30.3 11.2 0 24.6-5.5 32-19.9l-19.6-9c-4.8 12.3-24.9 9.3-24.9-1.4zm-60.5-26.4c-6.9-1.5-11.5-4-11.8-8.3.4-10.3 16.3-10.7 25.6-.8l14.7-11.3c-9.2-11.2-19.6-14.2-30.3-14.2-16.3 0-32.1 9.2-32.1 26.6 0 16.9 13 26 27.3 28.2 7.3 1 15.4 3.9 15.2 8.9-.6 9.5-20.2 9-29.1-1.8l-14.2 13.3c8.3 10.7 19.6 16.1 30.2 16.1 16.3 0 34.4-9.4 35.1-26.6 1-21.7-14.8-27.2-30.6-30.1zm-67 55.5h22.4v-88.8h-22.4v88.8zm377.7-88.8h-33.2v37.3l22.1 19.9v-36.2h11.8c7.5 0 11.2 3.6 11.2 9.4v27.7c0 5.8-3.5 9.7-11.2 9.7h-34v21.1h33.3c17.8.1 34.5-8.8 34.5-29.2v-29.8c0-20.8-16.7-29.9-34.5-29.9zm-162.9-1.2c-18.4 0-36.7 10-36.7 30.5v30.3c0 20.3 18.4 30.5 36.9 30.5 18.4 0 36.7-10.2 36.7-30.5v-30.3c0-20.4-18.5-30.5-36.9-30.5zm14.4 60.8c0 6.4-7.2 9.7-14.3 9.7-7.2 0-14.4-3.1-14.4-9.7v-30.3c0-6.5 7-10 14-10 7.3 0 14.7 3.1 14.7 10v30.3zm102.9-30.3c-.5-20.8-14.7-29.2-33-29.2h-35.5v88.8h22.7v-28.2h4l20.6 28.2h28l-24.2-30.5c10.7-3.4 17.4-12.7 17.4-29.1zm-32.6 12h-13.2v-20.3h13.2c14.1 0 14.1 20.3 0 20.3z" id="path920"/><path d="M402.588 70.084c-2.052 0-3.956-.53-5.714-1.588v-5.02c1.661 1.041 3.29 1.56 4.893 1.56.996 0 1.708-.218 2.139-.652.431-.417.674-.993.733-1.73.079-.737.117-1.985.117-3.744V39.965h5.801V60.47c0 3.403-.694 5.862-2.08 7.374-1.406 1.495-3.37 2.24-5.889 2.24zm30.473 0c-3.147 0-5.843-.623-8.088-1.871-2.267-1.248-3.984-3.015-5.157-5.304-1.154-2.306-1.728-5.02-1.728-8.139 0-3.12.574-5.823 1.728-8.111 1.173-2.306 2.89-4.084 5.157-5.332 2.245-1.248 4.941-1.872 8.088-1.872 3.123 0 5.819.624 8.087 1.872 2.244 1.248 3.955 3.026 5.127 5.332 1.172 2.288 1.758 4.991 1.758 8.111 0 3.119-.586 5.833-1.758 8.139-1.172 2.289-2.883 4.056-5.127 5.304-2.268 1.248-4.964 1.871-8.087 1.871zm0-5.19c2.754 0 4.922-.87 6.504-2.609 1.583-1.738 2.374-4.245 2.374-7.515 0-3.253-.791-5.758-2.374-7.516-1.582-1.738-3.75-2.609-6.504-2.609-2.755 0-4.923.871-6.505 2.609-1.583 1.758-2.374 4.263-2.374 7.516 0 3.27.791 5.777 2.374 7.515 1.582 1.739 3.75 2.609 6.505 2.609zm22.588 4.68V39.965h5.801v29.609h-5.801zM490.4 39.965h5.83v29.609h-5.83l-14.504-19.569v19.569h-5.802V39.965h5.802L490.4 59.506V39.965zm33.813 29.609V45.099h-8.703v-5.134h23.207v5.134h-8.703v24.475h-5.801zm41.783-29.609h5.831v29.609h-5.831V56.556h-14.504v13.018h-5.802V39.965h5.802v11.628h14.504V39.965zm34.836 4.935H586.65v7.402h13.215v4.623H586.65v7.714h14.182v4.935h-19.983V39.965h19.983V44.9z" style="white-space:pre" id="path922" fill="#7289da"/></svg>