<?xml version="1.0" encoding="utf-8"?>
<svg viewBox="0 20 750 270" xmlns="http://www.w3.org/2000/svg">
  <path d="M 115 35 C 65.303 35 25 76.316 25 127.278 C 25 168.045 50.783 202.634 86.55 214.837 C 91.045 215.69 92.498 212.829 92.498 210.402 L 92.498 193.222 C 67.463 198.803 62.25 182.332 62.25 182.332 C 58.157 171.67 52.255 168.83 52.255 168.83 C 44.087 163.103 52.876 163.225 52.876 163.225 C 61.915 163.872 66.67 172.738 66.67 172.738 C 74.695 186.84 87.72 182.764 92.858 180.403 C 93.663 174.445 95.995 170.367 98.574 168.07 C 78.587 165.723 57.573 157.811 57.573 122.462 C 57.573 112.381 61.09 104.153 66.84 97.694 C 65.912 95.364 62.829 85.975 67.718 73.271 C 67.718 73.271 75.278 70.795 92.476 82.732 C 99.654 80.684 107.35 79.661 115 79.624 C 122.65 79.661 130.352 80.684 137.544 82.732 C 154.727 70.795 162.271 73.271 162.271 73.271 C 167.168 85.982 164.087 95.371 163.157 97.694 C 168.932 104.153 172.42 112.388 172.42 122.462 C 172.42 157.903 151.367 165.709 131.327 167.994 C 134.551 170.853 137.5 176.465 137.5 185.077 L 137.5 210.402 C 137.5 212.854 138.94 215.737 143.506 214.83 C 179.245 202.612 205 168.03 205 127.278 C 205 76.316 164.702 35 115 35 Z" fill="#FFFFFF"/>
  <g transform="matrix(0.056273, 0, 0, -0.056273, 202.383926, 261.248138)" fill="#FFFFFF" stroke="none">
    <path d="M1475 3229 c-432 -59 -678 -318 -767 -809 -29 -160 -31 -545 -4 -695 47 -256 135 -438 276 -569 113 -104 244 -167 432 -207 85 -19 136 -23 293 -23 201 0 259 7 405 51 94 28 224 85 252 110 17 15 18 50 18 578 0 423 -3 564 -12 573 -9 9 -108 12 -384 12 -325 0 -375 -2 -388 -16 -13 -13 -16 -45 -16 -198 0 -128 4 -186 12 -194 8 -8 58 -12 160 -12 l148 0 0 -220 0 -220 -27 -7 c-16 -5 -100 -8 -188 -8 -143 1 -166 3 -218 24 -126 50 -227 184 -267 356 -40 167 -43 458 -6 617 69 297 235 418 573 418 132 0 207 -10 336 -42 68 -18 90 -20 96 -10 4 6 27 94 50 194 l43 182 -22 18 c-30 24 -163 65 -273 84 -111 18 -425 27 -522 13z"/>
    <path d="M4512 3148 c-17 -17 -17 -2159 0 -2176 17 -17 429 -17 446 0 9 9 12 128 12 475 l0 463 320 0 320 0 0 -465 c0 -449 1 -465 19 -475 12 -6 102 -10 225 -10 173 0 207 2 220 16 14 14 16 126 16 1084 0 958 -2 1070 -16 1084 -13 14 -47 16 -220 16 -123 0 -213 -4 -225 -10 -18 -10 -19 -25 -19 -410 l0 -400 -320 0 -320 0 0 398 c0 296 -3 401 -12 410 -17 17 -429 17 -446 0z"/>
    <path d="M7896 3144 c-14 -14 -16 -126 -16 -1084 0 -958 2 -1070 16 -1084 13 -13 42 -16 164 -16 163 0 180 6 180 58 0 15 4 34 10 42 8 12 11 12 27 -2 33 -30 162 -89 241 -110 106 -28 320 -30 407 -4 262 79 374 284 391 721 20 484 -120 763 -414 824 -141 29 -340 7 -476 -53 -32 -14 -60 -26 -62 -26 -2 0 -4 164 -4 365 0 350 -1 365 -19 375 -12 6 -102 10 -225 10 -173 0 -207 -2 -220 -16z m822 -1053 c92 -47 126 -148 127 -376 0 -317 -51 -405 -235 -405 -80 0 -191 26 -234 54 l-26 16 0 336 0 335 48 20 c121 52 242 60 320 20z"/>
    <path d="M2795 3100 c-121 -31 -193 -115 -203 -235 -6 -79 14 -140 66 -197 162 -180 455 -65 454 177 0 46 -7 79 -22 109 -53 111 -183 175 -295 146z"/>
    <path d="M3503 2882 c-9 -6 -13 -66 -15 -221 l-3 -214 -113 -27 c-63 -15 -118 -32 -123 -37 -5 -5 -8 -74 -7 -159 l3 -149 120 -5 120 -5 5 -395 c6 -418 6 -425 57 -524 47 -91 163 -172 290 -202 126 -29 401 -13 449 27 19 15 20 324 2 335 -7 4 -49 7 -94 5 -148 -4 -215 30 -234 122 -6 32 -9 162 -8 342 l3 290 160 3 c136 2 162 5 173 19 15 21 17 325 2 354 -10 18 -23 19 -175 19 l-165 0 0 209 c0 181 -2 210 -16 215 -23 9 -417 7 -431 -2z"/>
    <path d="M2622 2448 c-9 -9 -12 -186 -12 -734 0 -658 1 -723 17 -735 12 -11 65 -15 219 -17 194 -3 204 -2 223 17 21 21 21 28 21 739 0 545 -3 721 -12 730 -17 17 -439 17 -456 0z"/>
    <path d="M6302 2451 c-10 -6 -12 -122 -10 -592 l3 -584 26 -68 c58 -147 139 -219 300 -263 48 -14 101 -18 214 -18 134 1 159 3 240 28 50 15 126 44 170 66 44 21 83 36 87 33 5 -2 8 -17 8 -33 0 -54 17 -60 169 -60 93 0 141 4 149 12 9 9 12 188 12 744 0 658 -2 732 -16 738 -31 12 -429 7 -442 -6 -9 -9 -12 -143 -12 -541 l0 -528 -67 -32 c-62 -29 -76 -32 -170 -32 -87 0 -105 3 -130 21 -64 47 -63 37 -63 591 0 443 -2 503 -16 517 -13 14 -48 16 -227 16 -117 0 -218 -4 -225 -9z"/>
  </g>
  <path d="M 502.629 174.642 L 506.337 185.31 L 517.629 185.54 L 508.629 192.364 L 511.9 203.174 L 502.629 196.723 L 493.358 203.174 L 496.629 192.364 L 487.629 185.54 L 498.921 185.31 Z" style="stroke: rgb(255, 255, 255); stroke-linecap: round; stroke-linejoin: round; stroke-width: 4px;" transform="matrix(1, 0.00007, -0.00007, 1, -101.979468, -136.901092)" fill="#FFFFFF" />
  <path d="M 440.062 69.056 C 437.635 69.056 435.425 68.703 433.432 67.996 C 431.439 67.296 429.845 66.216 428.652 64.756 C 427.452 63.303 426.852 61.503 426.852 59.356 L 426.902 58.386 L 432.832 58.386 C 432.805 58.573 432.792 58.849 432.792 59.216 C 432.792 60.749 433.452 61.946 434.772 62.806 C 436.085 63.659 437.892 64.086 440.192 64.086 C 442.645 64.086 444.472 63.736 445.672 63.036 C 446.865 62.329 447.462 61.346 447.462 60.086 C 447.462 59.106 447.109 58.293 446.402 57.646 C 445.702 57.006 444.829 56.493 443.782 56.106 C 442.742 55.726 441.272 55.276 439.372 54.756 C 436.852 54.076 434.819 53.423 433.272 52.796 C 431.725 52.169 430.399 51.233 429.292 49.986 C 428.192 48.746 427.642 47.116 427.642 45.096 C 427.642 42.269 428.805 40.113 431.132 38.626 C 433.465 37.139 436.519 36.396 440.292 36.396 C 443.905 36.396 446.855 37.156 449.142 38.676 C 451.429 40.196 452.572 42.489 452.572 45.556 L 452.572 46.106 L 446.772 46.106 L 446.772 45.596 C 446.772 44.276 446.182 43.243 445.002 42.496 C 443.822 41.743 442.235 41.366 440.242 41.366 C 438.155 41.366 436.522 41.673 435.342 42.286 C 434.162 42.899 433.572 43.759 433.572 44.866 C 433.572 45.693 433.909 46.389 434.582 46.956 C 435.255 47.523 436.105 47.983 437.132 48.336 C 438.165 48.689 439.555 49.096 441.302 49.556 C 443.849 50.229 445.925 50.889 447.532 51.536 C 449.145 52.176 450.525 53.126 451.672 54.386 C 452.825 55.639 453.402 57.263 453.402 59.256 C 453.402 62.629 452.205 65.106 449.812 66.686 C 447.419 68.266 444.169 69.056 440.062 69.056 Z M 464.851 69.056 C 462.798 69.056 461.318 68.483 460.411 67.336 C 459.504 66.183 459.051 64.749 459.051 63.036 L 459.051 48.816 L 456.111 48.816 L 456.111 44.306 L 459.141 44.306 L 460.161 37.546 L 464.571 37.546 L 464.571 44.306 L 468.711 44.306 L 468.711 48.816 L 464.571 48.816 L 464.571 62.476 C 464.571 63.856 465.231 64.546 466.551 64.546 L 468.711 64.546 L 468.711 68.326 C 468.224 68.506 467.611 68.673 466.871 68.826 C 466.138 68.979 465.464 69.056 464.851 69.056 Z M 479.063 69.056 C 477.097 69.056 475.323 68.573 473.743 67.606 C 472.17 66.639 471.383 64.853 471.383 62.246 C 471.383 59.153 472.7 56.976 475.333 55.716 C 477.973 54.463 481.717 53.836 486.563 53.836 L 486.563 51.806 C 486.563 50.639 486.263 49.736 485.663 49.096 C 485.063 48.449 483.983 48.126 482.423 48.126 C 480.797 48.126 479.647 48.386 478.973 48.906 C 478.293 49.433 477.953 50.079 477.953 50.846 L 477.953 51.486 L 472.623 51.486 C 472.59 51.299 472.573 50.963 472.573 50.476 C 472.573 48.389 473.47 46.749 475.263 45.556 C 477.057 44.356 479.443 43.756 482.423 43.756 C 485.643 43.756 488.057 44.416 489.663 45.736 C 491.277 47.056 492.083 48.943 492.083 51.396 L 492.083 62.936 C 492.083 63.489 492.237 63.896 492.543 64.156 C 492.85 64.416 493.233 64.546 493.693 64.546 L 495.163 64.546 L 495.163 68.326 C 494.183 68.786 493.033 69.016 491.713 69.016 C 490.513 69.016 489.517 68.723 488.723 68.136 C 487.923 67.556 487.387 66.759 487.113 65.746 L 486.793 65.746 C 484.98 67.953 482.403 69.056 479.063 69.056 Z M 480.713 64.646 C 482.527 64.646 483.953 64.123 484.993 63.076 C 486.04 62.036 486.563 60.626 486.563 58.846 L 486.563 57.746 C 483.583 57.746 481.25 58.029 479.563 58.596 C 477.877 59.163 477.033 60.196 477.033 61.696 C 477.033 63.663 478.26 64.646 480.713 64.646 Z M 498.747 68.506 L 498.747 44.306 L 503.297 44.306 L 503.807 48.126 L 504.127 48.126 C 505.234 45.213 507.044 43.756 509.557 43.756 C 510.417 43.756 511.184 43.896 511.857 44.176 L 511.857 49.366 L 510.107 49.366 C 506.214 49.366 504.267 51.546 504.267 55.906 L 504.267 68.506 L 498.747 68.506 Z M 543.222 69.056 C 538.162 69.056 534.252 67.693 531.492 64.966 C 528.732 62.233 527.352 58.153 527.352 52.726 C 527.352 47.299 528.732 43.223 531.492 40.496 C 534.252 37.763 538.162 36.396 543.222 36.396 C 548.282 36.396 552.202 37.763 554.982 40.496 C 557.755 43.223 559.142 47.299 559.142 52.726 C 559.142 58.153 557.755 62.233 554.982 64.966 C 552.202 67.693 548.282 69.056 543.222 69.056 Z M 543.222 64.086 C 546.475 64.086 548.939 63.176 550.612 61.356 C 552.279 59.529 553.112 56.823 553.112 53.236 L 553.112 52.266 C 553.112 48.679 552.269 45.966 550.582 44.126 C 548.895 42.286 546.442 41.366 543.222 41.366 C 540.035 41.366 537.599 42.286 535.912 44.126 C 534.225 45.966 533.382 48.679 533.382 52.266 L 533.382 53.236 C 533.382 56.823 534.219 59.529 535.892 61.356 C 537.559 63.176 540.002 64.086 543.222 64.086 Z M 564.336 68.506 L 564.336 44.306 L 568.886 44.306 L 569.346 47.526 L 569.676 47.526 C 570.563 46.333 571.66 45.406 572.966 44.746 C 574.266 44.086 575.76 43.756 577.446 43.756 C 579.9 43.756 581.816 44.423 583.196 45.756 C 584.576 47.089 585.266 49.229 585.266 52.176 L 585.266 68.506 L 579.746 68.506 L 579.746 53.146 C 579.746 51.486 579.37 50.303 578.616 49.596 C 577.87 48.896 576.76 48.546 575.286 48.546 C 573.753 48.546 572.463 49.096 571.416 50.196 C 570.376 51.303 569.856 52.713 569.856 54.426 L 569.856 68.506 L 564.336 68.506 Z" style="white-space: pre;" fill="#FFFFFF"/>
</svg>